<svg id="Capa_1" enable-background="new 0 0 512 512" height="512" viewBox="0 0 512 512" width="512" xmlns="http://www.w3.org/2000/svg"><g><g><g><g><g><g><path d="m296.025 157.446c-5.558 0-11.033-.938-16.276-2.848-16.683-6.068-28.866-21.175-33.423-41.442-3.795-16.879-2.163-36.402 4.597-54.975s18.059-34.58 31.816-45.071c16.519-12.592 35.562-16.338 52.243-10.26 31.649 11.519 44.312 53.87 28.826 96.417-6.76 18.573-18.059 34.58-31.816 45.071-11.327 8.634-23.841 13.108-35.967 13.108zm22.6-111.274c-1.291 0-4.118.796-7.88 3.665-6.717 5.121-12.702 13.921-16.422 24.139-3.72 10.22-4.79 20.808-2.937 29.05 1.232 5.48 3.333 7.873 4.158 8.173.831.304 3.977-.183 8.443-3.588 6.717-5.121 12.702-13.921 16.422-24.139 7.628-20.959 2.024-36.043-1.223-37.225-.131-.047-.319-.075-.561-.075z" fill="#ff993a"/></g></g></g><g><g><path d="m363.81 99.27c-6.76 18.57-18.06 34.58-31.82 45.07-11.32 8.63-23.84 13.11-35.97 13.11-5.55 0-11.03-.94-16.27-2.85-16.68-6.07-28.87-21.18-33.42-41.44-2.29-10.17-2.61-21.3-1.02-32.6 11.28 6.12 24.21 9.59 37.94 9.59 2.52 0 5.01-.12 7.47-.35-.44 4.75-.23 9.26.67 13.23 1.23 5.48 3.33 7.87 4.15 8.17.83.3 3.98-.18 8.45-3.59 6.71-5.12 12.7-13.92 16.42-24.14.38-1.04.72-2.06 1.03-3.06 20.37-11.13 35.35-30.9 40.01-54.38 10.66 19.03 12.24 46.09 2.36 73.24z" fill="#f97c15"/></g></g><g><g><g><path d="m187.874 144.501c-13.757-10.491-25.056-26.497-31.816-45.071-15.486-42.547-2.823-84.898 28.826-96.417 16.681-6.078 35.724-2.332 52.243 10.261 13.757 10.491 25.056 26.497 31.816 45.071s8.392 38.095 4.597 54.975c-4.556 20.267-16.74 35.374-33.423 41.442-5.243 1.91-10.719 2.848-16.276 2.848-12.126 0-24.64-4.474-35.967-13.109zm12.807-98.09c-3.247 1.182-8.851 16.266-1.223 37.225 3.72 10.218 9.705 19.017 16.422 24.139 4.466 3.405 7.612 3.892 8.443 3.588.825-.3 2.926-2.693 4.158-8.173 1.853-8.242.783-18.83-2.937-29.05-3.72-10.218-9.705-19.017-16.422-24.139-3.763-2.868-6.589-3.665-7.88-3.665-.243.001-.431.028-.561.075z" fill="#ffaf40"/></g></g></g><g><g><path d="m252.781 28.913c-4.699-6.018-9.965-11.3-15.654-15.639-16.519-12.592-35.562-16.338-52.243-10.26-22.467 8.177-35.36 31.89-35.412 60.182-.028 15.06 14.565 25.86 29.06 21.776.148-.042.296-.083.445-.125 9.849-2.767 16.581-11.747 16.667-21.977.08-9.588 3.014-15.721 5.037-16.457.13-.047.318-.074.56-.074 1.291 0 4.118.796 7.88 3.665 2.536 1.934 4.967 4.393 7.211 7.255 6.248 7.969 17.053 10.78 26.441 6.984.142-.058.285-.115.427-.173 14.019-5.684 18.89-23.235 9.581-35.157z" fill="#ffc751"/></g></g><g><g><path d="m150.836 47.833c-.883 4.861-1.345 9.952-1.363 15.201-.054 15.109 14.272 26.147 28.804 22.01.234-.067.467-.132.701-.198 9.849-2.767 16.582-11.747 16.667-21.977.02-2.337.209-4.468.513-6.366.915-5.706-.178-11.557-3.332-16.399-.085-.131-.171-.263-.256-.394-11.251-17.318-38.042-12.196-41.734 8.123z" fill="#ffe059"/></g></g></g><g><g><path d="m466.591 512h-421.181c-8.449 0-15.299-6.85-15.299-15.299v-361.279h451.779v361.279c0 8.449-6.85 15.299-15.299 15.299z" fill="#12adb5"/><g fill="#0d8ba0"><path d="m30.111 135.422h451.779v88.096h-451.779z"/><path d="m481.89 135.42v361.28c0 8.45-6.85 15.3-15.3 15.3h-421.18c-8.45 0-15.3-6.85-15.3-15.3v-66.73c42.31 28.32 93.18 44.83 147.91 44.83 147.06 0 266.28-119.22 266.28-266.28 0-25.35-3.54-49.87-10.16-73.1z"/></g></g><path d="m482.115 197.521h-452.23c-8.449 0-15.299-6.85-15.299-15.299v-64.029c0-8.449 6.85-15.299 15.299-15.299h452.231c8.449 0 15.299 6.85 15.299 15.299v64.029c-.001 8.449-6.85 15.299-15.3 15.299z" fill="#3cd3d3"/><path d="m361.452 102.894h-257.255c-13.027 0-23.587 10.56-23.587 23.587 0 13.027 10.56 23.587 23.587 23.587h257.255c13.027 0 23.587-10.56 23.587-23.587 0-13.027-10.56-23.587-23.587-23.587z" fill="#57eae6"/><path d="m170.097 102.894h-33.04c-13.027 0-23.587 10.56-23.587 23.587 0 13.027 10.56 23.587 23.587 23.587h33.04c13.027 0 23.587-10.56 23.587-23.587 0-13.027-10.561-23.587-23.587-23.587z" fill="#a5f9f3"/><path d="m207.45 135.42h97.1v376.58h-97.1z" fill="#ffaf40"/><path d="m207.454 135.422h97.092v88.096h-97.092z" fill="#ff993a"/><path d="m204.816 102.894h102.368v94.627h-102.368z" fill="#ffc751"/></g></g><g><path d="m256.154 400.388v-123.355c0-13.448-10.902-24.35-24.35-24.35-13.448 0-24.35 10.902-24.35 24.35v123.355c0 13.448 10.902 24.35 24.35 24.35 13.448 0 24.35-10.902 24.35-24.35z" fill="#ffc751"/><path d="m256.154 349.698v-41.936c0-13.448-10.902-24.35-24.35-24.35-13.448 0-24.35 10.902-24.35 24.35v41.936c0 13.448 10.902 24.35 24.35 24.35 13.448 0 24.35-10.902 24.35-24.35z" fill="#ffe059"/><path d="m78.81 341.483v-71.936c0-13.448-10.902-24.35-24.35-24.35-13.448 0-24.35 10.902-24.35 24.35v71.936c0 13.448 10.902 24.35 24.35 24.35 13.449 0 24.35-10.902 24.35-24.35z" fill="#3cd3d3"/><path d="m78.81 302.201v-10.737c0-13.448-10.902-24.35-24.35-24.35-13.448 0-24.35 10.902-24.35 24.35v10.737c0 13.448 10.902 24.35 24.35 24.35 13.449-.001 24.35-10.903 24.35-24.35z" fill="#57eae6"/></g><path d="m204.816 102.894h102.368v47.314h-102.368z" fill="#ffe059"/><path d="m304.55 442.87v69.13h-97.1v-38.81c34.83-3.83 67.64-14.37 97.1-30.32z" fill="#ff993a"/><path d="m481.89 290.88v205.82c0 8.45-6.85 15.3-15.3 15.3h-150.06c102.53-27.19 150.78-114.03 165.36-221.12z" fill="#02718c"/></g></svg>