<svg id="SvgjsSvg1001" width="288" height="288" xmlns="http://www.w3.org/2000/svg" version="1.1" xmlns:xlink="http://www.w3.org/1999/xlink" xmlns:svgjs="http://svgjs.com/svgjs"><defs id="SvgjsDefs1002"></defs><g id="SvgjsG1008"><svg xmlns="http://www.w3.org/2000/svg" width="288" height="288" version="1.0" viewBox="0 0 1526 967"><g transform="matrix(.0763 0 0 -.07254 0 967)" fill="#e6f3ee" class="color000 svgShape"><path d="M1889 13183c-79-82-162-174-183-206-52-80-103-193-128-285-23-89-33-288-17-367 5-27 11-59 13-70 18-95 97-259 170-353 78-99 2415-2425 2479-2466 99-64 224-116 342-141 50-11 247-14 300-5 104 18 117 21 183 46 92 34 185 87 257 144 109 88 2419 2410 2459 2473 53 81 103 194 128 285 17 62 21 107 21 227 0 170-15 246-77 379-56 121-102 182-255 339l-145 147-2701 0-2702 0-144-147zM0 9885c0-1702 3-3095 7-3095 16 0 123 67 178 111 108 86 2419 2409 2459 2472 53 81 103 194 128 285 30 111 30 344 0 454-25 91-76 204-128 285-41 63-2366 2401-2464 2477-52 41-159 106-173 106-4 0-7-1393-7-3095zM19884 10218c-96-23-203-73-279-131-33-25-508-495-1056-1044-1041-1043-1036-1038-1093-1180-96-239-64-522 84-730 58-82 2021-2044 2093-2093 90-60 214-107 330-124l37-6 0 2664 0 2665-20-2c-11-1-54-9-96-19zM3313 9319c-29-10-72-31-95-47-57-40-509-497-535-542-70-117-66-278 8-393 28-42 489-504 534-535 52-35 153-64 214-61 65 3 148 29 194 60 47 33 483 466 523 521 87 117 96 284 21 408-26 44-466 489-530 537-94 69-224 90-334 52zM19268 4531c-32-10-79-33-105-50-27-17-285-268-574-558-485-487-529-533-558-596-57-119-51-261 16-377 36-63 1059-1087 1126-1128 102-60 202-75 312-46 96 24 139 57 332 249l183 182 0 949 0 949-187 186c-161 159-198 190-257 219-90 42-200 50-288 21zM990 4176c-116-34-138-52-572-486l-418-417 0-558 0-558 423-421c347-346 432-426 477-447 146-70 292-63 425 19 22 14 292 278 601 586 582 582 594 595 628 710 17 56 19 141 6 200-27 124-27 124-636 733-554 556-573 574-648 609-65 31-89 37-159 40-49 2-100-2-127-10z" fill="#e6f3ee" class="color000 svgShape"></path></g></svg></g></svg>